# xmcd
#
# Track frame offsets: 
#        182
#        20397
#        44742
#        63135
#        90042
#        110190
#        130792
#        147962
#        173482
#
# Disc length: 2620 seconds
#
# Revision: 7
# Processed by: cddbd v1.5.2PL0 Copyright (c) Steve Scherf et al.
# Submitted via: ExactAudioCopy v1.1
#
DISCID=6f0a3a09
DTITLE=Eurythmics - Be Yourself Tonight
DYEAR=1985
DGENRE=Pop
TTITLE0=Would I Lie To You
TTITLE1=There Must Be An Angel (Playing With My Heart)
TTITLE2=I Love You Like A Ball And Chain
TTITLE3=Sisters Are Doin' It For Themselves (With Aretha Franklin)
TTITLE4=Conditioned Soul
TTITLE5=Adrian
TTITLE6=It's Alright (Baby's Coming Back)
TTITLE7=Here Comes That Sinking Feeling
TTITLE8=Better To Have Lost In Love (Than Never To Have Loved At All)
EXTD=Label: RCA\nPD 70711
EXTT0=
EXTT1=
EXTT2=
EXTT3=
EXTT4=
EXTT5=
EXTT6=
EXTT7=
EXTT8=
PLAYORDER=
